<svg xmlns="http://www.w3.org/2000/svg" xmlns:xlink="http://www.w3.org/1999/xlink" viewBox="0 0 100 100"><defs><style>.a{clip-path:url(#b);}.b{fill:#00a95d;fill-rule:evenodd;}.c{fill:#fff;}</style><clipPath id="b"><rect width="100" height="100"/></clipPath></defs><g id="a" class="a"><rect class="c" width="100" height="100"/><g transform="translate(7.5 -12.5)"><g transform="translate(15.5 15.5)"><path class="b" d="M268.9,369.548a10.988,10.988,0,0,1-11.007,10.992H224.907A11,11,0,0,1,213.9,369.551V298.029a10.987,10.987,0,0,1,11.007-10.989h32.986A11.008,11.008,0,0,1,268.9,298.032Zm-5.5-13.758v-44h-44v44Zm0,13.758V361.29h-44v8.261a5.5,5.5,0,0,0,5.507,5.489h32.986A5.489,5.489,0,0,0,263.4,369.548Zm0-63.258v-8.258a5.508,5.508,0,0,0-5.507-5.492H224.907a5.488,5.488,0,0,0-5.507,5.489v8.261Zm-26.125-4.125a2.75,2.75,0,1,1,0-5.5h8.25a2.75,2.75,0,0,1,0,5.5ZM241.4,372.29a4.125,4.125,0,1,1,4.125-4.125A4.125,4.125,0,0,1,241.4,372.29Zm-11-44.777h0v-6.1a2.75,2.75,0,1,1,5.5,0v1.21l3.673-3.266a2.753,2.753,0,0,1,3.655,0l12.375,11a2.75,2.75,0,0,1-1.827,4.806V347.54a2.749,2.749,0,0,1-2.75,2.75h-19.25a2.749,2.749,0,0,1-2.75-2.75V335.165a2.75,2.75,0,0,1-1.827-4.806Zm4.125,3.692V344.79h13.75V331.2l-6.875-6.111Z" transform="translate(-213.9 -287.04)"/></g></g></g></svg>