<svg xmlns="http://www.w3.org/2000/svg" xmlns:xlink="http://www.w3.org/1999/xlink" width="100" height="100" viewBox="0 0 100 100"><g><g transform="translate(50 50) scale(0.69 0.69) rotate(0) translate(-50 -50)" style="fill:#ffffff;"><svg fill="#ffffff" xmlns:x="http://ns.adobe.com/Extensibility/1.0/" xmlns:i="http://ns.adobe.com/AdobeIllustrator/10.0/" xmlns:graph="http://ns.adobe.com/Graphs/1.0/" xmlns="http://www.w3.org/2000/svg" xmlns:xlink="http://www.w3.org/1999/xlink" version="1.1" x="0px" y="0px" viewBox="-949 951 100 100" style="enable-background:new -949 951 100 100;" xml:space="preserve"><g><g i:extraneous="self"><path d="M-860.6,1044.1c-1.9,2.9-5.2,4.6-8.7,4.4c-3.5-0.2-8-0.7-11.1-1.5c-13.8-3.6-28.1-12.2-40.2-24.3    c-12.1-12.1-20.7-26.4-24.3-40.2c-0.8-3.1-1.2-7.5-1.5-11c-0.2-3.4,1.4-6.7,4.3-8.6l12.3-8.2c3.2-2.1,7.5-1,9.2,2.4l10,19.3    c1.4,2.7,0.7,6.1-1.7,8l-9,7c3.6,6.7,7,12.1,13.6,18.6c6.1,6.1,11.4,9.7,18.3,13.4l7.1-9.1c1.9-2.4,5.3-3.2,8-1.7l19.4,10    c3.4,1.7,4.5,6,2.4,9.2L-860.6,1044.1z"></path></g></g></svg></g></g></svg>