<svg fill="#00A95D" xmlns="http://www.w3.org/2000/svg" xmlns:xlink="http://www.w3.org/1999/xlink" version="1.1" x="0px" y="0px" viewBox="0 0 100.0 100"><path d="M945,420 c-55,24,-93,104,-95,221 c-8,139,-27,265,-186,290 c-5,48,-34,69,-64,69 c-30,0,-59,-22,-64,-69 c-157,-25,-178,-151,-186,-290 c-1,-110,-35,-196,-94,-221 c-19,-9,-19,-6,-19,-42 c0,-33,0,-33,32,-33 l664,0 c32,0,32,0,32,33 c0,33,0,33,-20,42 Z M600,200 c49,0,99,29,99,95 l-197,0 c0,-64,47,-95,98,-95 Z M1350,700 l-150,0 l0,-650 c0,-50,0,-50,-50,-50 l-1100,0 c-50,0,-50,0,-50,50 l0,650 l-150,0 l750,700 Z M860,1350 l200,0 l0,-320 l-200,190 Z M860,1350 " fill="#00A95D" stroke="none" stroke-dasharray="none" stroke-linecap="inherit" stroke-linejoin="inherit" stroke-width="1" transform="matrix(0.0583333333333,0.0,0.0,-0.0583333333333,15.0,85.0)"></path></svg>