<svg fill="#00A95D" xmlns="http://www.w3.org/2000/svg" xmlns:xlink="http://www.w3.org/1999/xlink" version="1.1" x="0px" y="0px" viewBox="0 0 20 20" style="enable-background:new 0 0 20 20;" xml:space="preserve"><path d="M17.9,11.9v3h-2.6l-2.2-3.8L19,8.9l-3-8.8L0.3,6.3l1.5,1.5c-1.2,0.6-1.9,2-1.5,3.4c0.4,1.6,2,2.5,3.6,2.1l1.2-0.3L5.5,14  l5.7-2.2l2.9,5h3.8v3h2v-7.9H17.9z M14.8,2.8l1.7,5c-6.3,2.3-4.2,1.5-9.8,3.7L5.9,9l-2-2L14.8,2.8z M4.5,11.1l-1.1,0.3  c-0.5,0.1-1.1-0.2-1.2-0.7C2,10.2,2.3,9.6,2.9,9.5l0.5-0.1l0.8,0.8L4.5,11.1z"></path></svg>