<svg fill="#FFFFFF" xmlns="http://www.w3.org/2000/svg" xmlns:xlink="http://www.w3.org/1999/xlink" version="1.1" x="0px" y="0px" viewBox="0 0 100 100" enable-background="new 0 0 100 100" xml:space="preserve"><g display="none"><path display="inline" fill="#FFFFFF" d="M1156,687.403H-160c-1.65,0-3-1.35-3-3V-629.993c0-1.65,1.35-3,3-3h1316   c1.65,0,3,1.35,3,3V684.403C1159,686.053,1157.65,687.403,1156,687.403z"></path></g><g><path d="M30.566,65.357c0-4.883-3.974-8.857-8.857-8.857c-4.883,0-8.856,3.973-8.856,8.857c0,4.883,3.973,8.857,8.856,8.857   C26.592,74.213,30.566,70.24,30.566,65.357z"></path><path d="M36.28,62.922l14.061-4.962c0.467-0.288,1.051-0.345,1.566-0.108c4.142,1.893,8.545,2.852,13.087,2.852   c16.456,0,29.844-12.494,29.844-27.851C94.839,17.494,81.451,5,64.995,5S35.152,17.494,35.152,32.852   c0,5.739,1.877,11.265,5.428,15.98c0.347,0.46,0.437,1.065,0.241,1.606L36.28,62.922z M80.995,28.705   c2.27,0,4.111,1.841,4.111,4.111c0,2.27-1.84,4.111-4.111,4.111s-4.111-1.84-4.111-4.111   C76.885,30.545,78.725,28.705,80.995,28.705z M64.995,28.705c2.27,0,4.111,1.841,4.111,4.111c0,2.27-1.84,4.111-4.111,4.111   c-2.27,0-4.111-1.84-4.111-4.111C60.885,30.545,62.725,28.705,64.995,28.705z M48.995,28.705c2.27,0,4.111,1.841,4.111,4.111   c0,2.27-1.84,4.111-4.111,4.111c-2.27,0-4.111-1.84-4.111-4.111C44.885,30.545,46.725,28.705,48.995,28.705z"></path><path d="M5.161,90.917V95h1.601h1.6h26.694h1.6h1.601v-4.083c0-6.89-5.605-12.494-12.494-12.494h-8.109   C10.766,78.423,5.161,84.027,5.161,90.917z"></path></g></svg>