<svg fill="#FFFFFF" xmlns="http://www.w3.org/2000/svg" xmlns:xlink="http://www.w3.org/1999/xlink" version="1.1" x="0px" y="0px" viewBox="0 0 128 128" style="enable-background:new 0 0 128 128;" xml:space="preserve"><path d="M56,120h16c1.104,0,2-0.896,2-2s-0.896-2-2-2H56c-1.104,0-2,0.896-2,2S54.896,120,56,120z"></path><circle cx="56" cy="10" r="2"></circle><circle cx="64" cy="10" r="2"></circle><circle cx="72" cy="10" r="2"></circle><path d="M100,8c0-4.418-3.551-8-7.931-8H35.931C31.55,0,28,3.582,28,8v47.491c1.168-0.701,2.534-1.127,4-1.189V20h64v34.302  c1.466,0.063,2.832,0.488,4,1.189V8z M96,16H32V8c0-2.206,1.764-4,3.931-4h56.139C94.236,4,96,5.794,96,8V16z"></path><path d="M28,72.51V120c0,4.418,3.55,8,7.931,8h56.139c4.38,0,7.931-3.582,7.931-8V72.51c-1.168,0.7-2.534,1.126-4,1.188V108H32  V73.698C30.534,73.636,29.168,73.21,28,72.51z M96,112v8c0,2.206-1.764,4-3.931,4H35.931c-2.167,0-3.931-1.794-3.931-4v-8H96z"></path><path d="M64,48c-8.837,0-16,7.163-16,16s7.163,16,16,16s16-7.163,16-16S72.837,48,64,48z M64,76c-6.617,0-12-5.383-12-12  s5.383-12,12-12s12,5.383,12,12S70.617,76,64,76z"></path><path d="M100,62c0-2.209-1.592-4-3.556-4h-5.096c-0.717-3.284-2.012-6.351-3.771-9.093l3.607-3.606  c1.389-1.389,1.247-3.78-0.315-5.343l-2.828-2.828c-0.842-0.841-1.924-1.271-2.96-1.271c-0.888,0-1.742,0.315-2.383,0.956  l-3.606,3.607c-2.742-1.759-5.809-3.054-9.093-3.771v-5.096C70,29.592,68.209,28,66,28h-4c-2.209,0-4,1.592-4,3.556v5.096  c-3.284,0.717-6.351,2.012-9.093,3.771l-3.606-3.607c-0.641-0.641-1.495-0.956-2.383-0.956c-1.036,0-2.118,0.43-2.96,1.271  l-2.828,2.828c-1.562,1.563-1.703,3.954-0.315,5.343l3.607,3.606c-1.759,2.742-3.054,5.809-3.771,9.093h-5.096  C29.592,58,28,59.791,28,62v4c0,2.209,1.592,4,3.556,4h5.096c0.717,3.284,2.012,6.351,3.771,9.093l-3.607,3.606  c-1.389,1.389-1.247,3.78,0.315,5.343l2.828,2.828c0.842,0.841,1.924,1.271,2.96,1.271c0.888,0,1.742-0.315,2.383-0.956l3.606-3.607  c2.742,1.759,5.809,3.054,9.093,3.771v5.096c0,1.964,1.791,3.556,4,3.556h4c2.209,0,4-1.592,4-3.556v-5.096  c3.284-0.717,6.351-2.012,9.093-3.771l3.606,3.607c0.641,0.641,1.495,0.956,2.383,0.956c1.036,0,2.118-0.43,2.96-1.271l2.828-2.828  c1.562-1.563,1.703-3.954,0.315-5.343l-3.607-3.606c1.759-2.742,3.054-5.809,3.771-9.093h5.096c1.964,0,3.556-1.791,3.556-4V62z   M96,66h-4.651h-3.221l-0.688,3.147c-0.604,2.767-1.69,5.387-3.229,7.786l-1.738,2.711l2.277,2.276l3.292,3.292  c0,0.001,0,0.001,0,0.001l-2.827,2.827c-0.001,0-0.001,0-0.002,0.001l-3.292-3.292l-2.276-2.277l-2.711,1.738  c-2.399,1.539-5.02,2.626-7.786,3.229L66,88.128v3.221V96h-4v-4.651v-3.221l-3.148-0.688c-2.767-0.603-5.387-1.69-7.786-3.229  l-2.711-1.738l-2.276,2.277l-3.292,3.292c-0.001,0-0.001,0-0.001,0l-2.827-2.827c0-0.001,0-0.001-0.001-0.002l3.292-3.292  l2.277-2.276l-1.738-2.711c-1.539-2.399-2.626-5.02-3.229-7.786L39.872,66h-3.221H32v-4h4.651h3.221l0.688-3.148  c0.604-2.767,1.69-5.387,3.229-7.786l1.738-2.711l-2.277-2.276l-3.292-3.292c0-0.001,0-0.001,0-0.001l2.827-2.827  c0.001,0,0.001,0,0.002-0.001l3.292,3.292l2.276,2.277l2.711-1.738c2.399-1.539,5.019-2.626,7.786-3.229L62,39.872v-3.221V32h4  v4.651v3.221l3.147,0.688c2.767,0.604,5.387,1.69,7.786,3.229l2.711,1.738l2.276-2.277l3.292-3.292c0.001,0,0.001,0,0.001,0  l2.827,2.827c0,0.001,0,0.001,0.001,0.002l-3.292,3.292l-2.277,2.276l1.738,2.711c1.539,2.399,2.626,5.019,3.229,7.786L88.128,62  h3.221H96V66z"></path></svg>